<svg xmlns="http://www.w3.org/2000/svg" width="82.695" height="86.892" viewBox="0 0 82.695 86.892"><g transform="translate(6861.252 256.892)"><path d="M29.036,1.318c13.226,0,22.2,11.744,22.2,24.811S38.868,46.919,25.641,46.919,4.7,36.686,4.7,23.618,15.81,1.318,29.036,1.318Z" transform="translate(-6847.774 -236.257)" fill="#bf6c37"/><path d="M5.355,12.026a5.829,5.829,0,0,1-1.232-.134A7.7,7.7,0,0,1,1.288,10.58a12.048,12.048,0,0,1-2.5-2.448l-.692-.956L4.422-.245,8.3,4.411,5.989,6.329l-1.6-1.918L1.981,7.24a8.431,8.431,0,0,0,1.1.936,3.375,3.375,0,0,0,3.405.579c1.274-.614,2.964-2.462,4.758-5.2A47.371,47.371,0,0,0,13.7-.67L16.387.67a49.775,49.775,0,0,1-2.627,4.525C11.61,8.478,9.6,10.585,7.794,11.458A5.565,5.565,0,0,1,5.355,12.026Z" transform="matrix(0.998, -0.07, 0.07, 0.998, -6795.743, -232.517)" fill="#bf6c37"/><path d="M5.356,12.026a5.83,5.83,0,0,1-1.232-.134A7.706,7.706,0,0,1,1.289,10.58a12.05,12.05,0,0,1-2.5-2.447l-.692-.956L4.423-.245,8.3,4.411,5.99,6.329l-1.6-1.917L1.982,7.241a8.433,8.433,0,0,0,1.1.936,3.376,3.376,0,0,0,3.405.579c1.27-.612,2.954-2.451,4.742-5.179A47.625,47.625,0,0,0,13.7-.67L16.388.67A49.776,49.776,0,0,1,13.76,5.2C11.61,8.479,9.6,10.586,7.794,11.458A5.564,5.564,0,0,1,5.356,12.026Z" transform="matrix(0.259, -0.966, 0.966, 0.259, -6827.105, -240.889)" fill="#bf6c37"/><path d="M5.356,12.026a5.83,5.83,0,0,1-1.232-.134A7.706,7.706,0,0,1,1.289,10.58a12.05,12.05,0,0,1-2.5-2.447l-.692-.956L4.423-.245,8.3,4.411,5.99,6.329l-1.6-1.917L1.982,7.241a8.433,8.433,0,0,0,1.1.936,3.376,3.376,0,0,0,3.405.579c1.27-.612,2.954-2.451,4.742-5.179A47.625,47.625,0,0,0,13.7-.67L16.388.67A49.776,49.776,0,0,1,13.76,5.2C11.61,8.479,9.6,10.586,7.794,11.458A5.564,5.564,0,0,1,5.356,12.026Z" transform="translate(-6852.478 -218.646) rotate(-120)" fill="#bf6c37"/><path d="M1.342,11.2-1.342,9.855A49.8,49.8,0,0,1,1.286,5.33C3.435,2.046,5.442-.061,7.251-.933a5.564,5.564,0,0,1,3.671-.434A7.706,7.706,0,0,1,13.757-.055a12.05,12.05,0,0,1,2.5,2.447l.692.956-6.33,7.422L6.75,6.115,9.056,4.2l1.6,1.918,2.413-2.829a8.435,8.435,0,0,0-1.1-.936A3.376,3.376,0,0,0,8.554,1.77C7.285,2.382,5.6,4.221,3.812,6.948A47.641,47.641,0,0,0,1.342,11.2Z" transform="translate(-6858.928 -196.172) rotate(-8)" fill="#bf6c37"/><path d="M5.356,12.026a5.83,5.83,0,0,1-1.232-.134A7.706,7.706,0,0,1,1.289,10.58a12.05,12.05,0,0,1-2.5-2.447l-.692-.956L4.423-.245,8.3,4.411,5.99,6.329l-1.6-1.917L1.982,7.241a8.433,8.433,0,0,0,1.1.936,3.376,3.376,0,0,0,3.405.579c1.27-.612,2.954-2.451,4.742-5.179A47.625,47.625,0,0,0,13.7-.67L16.388.67A49.776,49.776,0,0,1,13.76,5.2C11.61,8.479,9.6,10.586,7.794,11.458A5.564,5.564,0,0,1,5.356,12.026Z" transform="matrix(0.777, 0.629, -0.629, 0.777, -6792.554, -200.936)" fill="#bf6c37"/><text transform="translate(-6839.717 -172)" fill="#fff" font-size="16" font-family="TsukuARdGothic-Regular, Tsukushi A Round Gothic" letter-spacing="0.5em"><tspan x="0" y="0">春風</tspan></text></g></svg>